<svg width="30" height="34" viewBox="0 0 30 34" fill="none" xmlns="http://www.w3.org/2000/svg">
<path d="M7.79287 14.0332C5.55178 14.0332 3.68421 13.3583 2.19015 12.0083C0.730051 10.6584 0 8.99446 0 7.01662C0 5.03878 0.730051 3.37489 2.19015 2.02493C3.68421 0.674977 5.55178 0 7.79287 0C10.034 0 11.8845 0.674977 13.3447 2.02493C14.8387 3.37489 15.5857 5.03878 15.5857 7.01662C15.5857 8.99446 14.8557 10.6584 13.3956 12.0083C11.9355 13.3583 10.0679 14.0332 7.79287 14.0332ZM4.02377 10.5014C5.00849 11.4118 6.26486 11.867 7.79287 11.867C9.32088 11.867 10.5772 11.4118 11.562 10.5014C12.5806 9.55956 13.09 8.39797 13.09 7.01662C13.09 5.63527 12.5806 4.48938 11.562 3.57895C10.5772 2.63712 9.32088 2.1662 7.79287 2.1662C6.26486 2.1662 5.00849 2.63712 4.02377 3.57895C3.03905 4.48938 2.54669 5.63527 2.54669 7.01662C2.54669 8.39797 3.03905 9.55956 4.02377 10.5014ZM1.93548 29.2438L26.129 4.09695L27.8608 4.99169L3.6163 30.1385L1.93548 29.2438ZM27.7589 31.9751C26.2988 33.325 24.4482 34 22.2071 34C19.966 34 18.0985 33.325 16.6044 31.9751C15.1443 30.6251 14.4143 28.9612 14.4143 26.9834C14.4143 25.0055 15.1443 23.3416 16.6044 21.9917C18.0985 20.6417 19.966 19.9668 22.2071 19.9668C24.4482 19.9668 26.2988 20.6417 27.7589 21.9917C29.253 23.3416 30 25.0055 30 26.9834C30 28.9612 29.253 30.6251 27.7589 31.9751ZM18.438 30.4681C19.4228 31.3786 20.6791 31.8338 22.2071 31.8338C23.7351 31.8338 24.9915 31.3786 25.9762 30.4681C26.9949 29.5263 27.5042 28.3647 27.5042 26.9834C27.5042 25.602 26.9949 24.4561 25.9762 23.5457C24.9915 22.6039 23.7351 22.133 22.2071 22.133C20.6791 22.133 19.4228 22.6039 18.438 23.5457C17.4533 24.4561 16.961 25.602 16.961 26.9834C16.961 28.3647 17.4533 29.5263 18.438 30.4681Z" fill="black"/>
</svg>
