<svg width="36" height="36" viewBox="0 0 36 36" fill="none" xmlns="http://www.w3.org/2000/svg">
<path d="M0.00292915 3.351C-0.0547805 1.61273 1.49788 0.0137396 3.24703 0.00145024C13.0481 8.47489e-05 22.8491 8.44572e-05 32.6515 8.44572e-05C34.0887 -0.0108395 35.438 1.03922 35.8379 2.40061C36.0563 3.13525 35.8942 3.91085 35.9918 4.66187C35.9423 6.2472 35.9189 7.84209 36 9.42742C35.9134 10.1784 35.9615 10.9363 35.956 11.6914C35.9492 14.2394 35.9588 16.786 35.9519 19.3327C35.9437 19.9704 36.0275 20.6299 35.82 21.2457C35.4147 22.5976 34.0846 23.6367 32.6542 23.6367C30.938 23.6299 29.2205 23.6367 27.5043 23.6312C28.0484 25.5907 27.9646 27.7222 27.2213 29.6189C26.3226 31.9716 24.4869 33.9489 22.206 35.0385C20.4789 35.8783 18.492 36.1842 16.5917 35.892C14.2943 35.5561 12.1481 34.3558 10.6284 32.6175C8.78304 30.5556 7.8638 27.6867 8.25815 24.9462C8.73082 21.2594 11.5187 18.0191 15.0706 16.898C15.8003 16.6591 16.5601 16.5334 17.3227 16.4529C17.0369 16.1361 16.5505 15.8561 16.6096 15.3659C16.6398 14.8389 17.3557 14.5507 17.7445 14.9112C18.3381 15.4506 18.8753 16.0473 19.4689 16.5867C19.785 16.8338 19.8303 17.3514 19.5211 17.6231C18.907 18.1925 18.3409 18.8124 17.7198 19.3736C17.3282 19.7109 16.659 19.4023 16.6109 18.9053C16.5395 18.4315 17.0039 18.1502 17.2842 17.847C14.8549 18.0641 12.5039 19.2931 11.1107 21.3072C8.74181 24.5871 9.15265 29.5575 12.1481 32.3239C15.05 35.13 20.0213 35.3663 23.2036 32.892C26.1248 30.7291 27.257 26.5384 25.8582 23.2052C25.6342 22.7874 25.9997 22.2303 26.4587 22.218C28.5211 22.248 30.5835 22.2234 32.646 22.2343C33.2299 22.2521 33.8592 22.05 34.2069 21.5571C34.6315 20.9958 34.5435 20.2571 34.5463 19.5989C34.5449 16.3996 34.5449 13.1989 34.5463 9.99956C23.5017 10.0009 12.4558 9.99956 1.41132 9.99956C1.41681 13.5171 1.4017 17.0373 1.41819 20.5548C1.41544 21.3481 2.02689 22.1033 2.83207 22.1975C3.88047 22.2849 4.9371 22.1934 5.98687 22.2439C6.52687 22.248 6.81541 22.9744 6.46641 23.3677C6.23007 23.6886 5.79175 23.6271 5.44137 23.6381C4.70901 23.6299 3.97528 23.6367 3.24291 23.6312C1.54597 23.6176 0.0276618 22.1101 0.00292915 20.4264C0.0111734 14.7337 -0.00668913 9.04235 0.00292915 3.351ZM1.78368 2.0374C1.31239 2.62729 1.41956 3.422 1.40994 4.1225C12.4545 4.12796 23.5004 4.12113 34.5449 4.12659C34.5325 3.46433 34.6493 2.73516 34.2673 2.148C33.9279 1.60727 33.2615 1.38059 32.646 1.40108C22.893 1.39971 13.1387 1.40517 3.38444 1.39835C2.79498 1.38059 2.15192 1.54855 1.78368 2.0374ZM1.41407 5.52759C1.4072 6.5517 1.41132 7.57582 1.41407 8.6013C12.4572 8.59994 23.5017 8.60267 34.5449 8.59994C34.538 7.57582 34.5573 6.5517 34.5435 5.52759C23.5004 5.52485 12.4572 5.52485 1.41407 5.52759Z" fill="#010101"/>
<path d="M16.6447 22.039C17.7205 22.0377 18.8157 21.9421 19.8819 22.1087C21.3384 22.4596 22.5214 23.8305 22.5214 25.3408C22.4651 26.8865 21.2161 28.2957 19.684 28.5592C18.9407 28.6453 18.1905 28.5592 17.4444 28.6125C17.4471 28.8869 17.4485 29.16 17.4499 29.4345C18.1547 29.4523 18.8665 29.3799 19.5673 29.4686C20.1924 29.6298 20.2144 30.6198 19.5879 30.7959C18.8816 30.8833 18.1644 30.8068 17.4526 30.8341C17.4292 31.2219 17.5474 31.7067 17.2067 31.9921C16.8618 32.3157 16.2228 32.1505 16.0799 31.7026C16.0195 31.4172 16.0456 31.1223 16.0387 30.8341C15.6402 30.8123 15.2102 30.9051 14.8351 30.7372C14.3432 30.4818 14.4064 29.6762 14.9244 29.4891C15.2871 29.3908 15.6705 29.4372 16.0428 29.4236C16.0415 29.1478 16.0415 28.8719 16.0428 28.5961C15.5839 28.5565 14.9999 28.7395 14.6564 28.3435C14.3047 27.9762 14.541 27.3125 15.0302 27.217C15.3627 27.1678 15.6993 27.1978 16.0346 27.1978C16.0593 25.7122 16.0291 24.2252 16.0483 22.7395C16.0277 22.3995 16.2984 22.065 16.6447 22.039ZM17.4485 23.4264C17.4581 24.6785 17.4416 25.932 17.4554 27.1842C18.3499 27.1432 19.3076 27.3617 20.154 26.993C21.5308 26.3389 21.403 23.9603 19.908 23.526C19.1056 23.3431 18.266 23.4537 17.4485 23.4264Z" fill="#010101"/>
</svg>
