<svg viewBox="0 0 22 22" fill="none" xmlns="http://www.w3.org/2000/svg">
<rect width="22" height="22" rx="11" fill="currentColor"/>
<path d="M15.4735 7.8067C15.4115 7.74421 15.3378 7.69461 15.2565 7.66077C15.1753 7.62692 15.0881 7.6095 15.0001 7.6095C14.9121 7.6095 14.825 7.62692 14.7437 7.66077C14.6625 7.69461 14.5888 7.74421 14.5268 7.8067L9.56013 12.78L7.47346 10.6867C7.40911 10.6245 7.33315 10.5757 7.24992 10.5429C7.16668 10.5101 7.0778 10.494 6.98834 10.4955C6.89889 10.4971 6.81062 10.5162 6.72857 10.5519C6.64651 10.5875 6.57229 10.639 6.51013 10.7034C6.44797 10.7677 6.39909 10.8437 6.36629 10.9269C6.33349 11.0101 6.3174 11.099 6.31895 11.1885C6.3205 11.2779 6.33965 11.3662 6.37531 11.4483C6.41097 11.5303 6.46245 11.6045 6.5268 11.6667L9.0868 14.2267C9.14877 14.2892 9.2225 14.3388 9.30374 14.3726C9.38498 14.4065 9.47212 14.4239 9.56013 14.4239C9.64814 14.4239 9.73527 14.4065 9.81651 14.3726C9.89775 14.3388 9.97149 14.2892 10.0335 14.2267L15.4735 8.7867C15.5411 8.72427 15.5951 8.6485 15.6321 8.56417C15.669 8.47983 15.6881 8.38876 15.6881 8.2967C15.6881 8.20463 15.669 8.11356 15.6321 8.02922C15.5951 7.94489 15.5411 7.86912 15.4735 7.8067Z" fill="#ffffff"/>
</svg>
