<svg viewBox="0 0 28 28" fill="none" xmlns="http://www.w3.org/2000/svg">
<path fill-rule="evenodd" clip-rule="evenodd" d="M20.2833 11.1833C20.2833 6.15667 16.21 2.12667 11.2267 2.12667C6.2 2.12667 2.17 6.2 2.17 11.1833C2.17 16.21 6.24333 20.24 11.2267 20.24C16.21 20.2833 20.2833 16.21 20.2833 11.1833ZM27 26.22L26.22 27L17.9867 18.7667C16.1667 20.37 13.8267 21.3667 11.1833 21.3667C5.55 21.3667 1 16.8167 1 11.1833C1 5.55 5.55 1 11.1833 1C16.8167 1 21.3667 5.55 21.3667 11.1833C21.3667 13.7833 20.37 16.1667 18.7667 17.9867L27 26.22Z" fill="#fff" stroke="currentColor" stroke-width="1"/>
</svg>
