<svg width="20" height="21" viewBox="0 0 20 21" fill="none" xmlns="http://www.w3.org/2000/svg">
<path d="M20 6.07107C20.0008 5.93946 19.9756 5.809 19.9258 5.68716C19.876 5.56533 19.8027 5.45451 19.71 5.36107L15.47 1.12107C15.3766 1.02839 15.2658 0.955065 15.1439 0.9053C15.0221 0.855536 14.8916 0.830311 14.76 0.831071C14.6284 0.830311 14.4979 0.855536 14.3761 0.9053C14.2543 0.955065 14.1435 1.02839 14.05 1.12107L11.22 3.95107L0.290017 14.8811C0.197335 14.9745 0.12401 15.0853 0.0742455 15.2072C0.0244809 15.329 -0.000744179 15.4595 1.67143e-05 15.5911V19.8311C1.67143e-05 20.0963 0.105374 20.3506 0.29291 20.5382C0.480446 20.7257 0.7348 20.8311 1.00002 20.8311H5.24002C5.37994 20.8387 5.51991 20.8168 5.65084 20.7668C5.78176 20.7169 5.90073 20.64 6.00002 20.5411L16.87 9.61107L19.71 6.83107C19.8013 6.73415 19.8757 6.6226 19.93 6.50107C19.9397 6.42136 19.9397 6.34078 19.93 6.26107C19.9347 6.21452 19.9347 6.16762 19.93 6.12107L20 6.07107ZM4.83002 18.8311H2.00002V16.0011L11.93 6.07107L14.76 8.90107L4.83002 18.8311ZM16.17 7.49107L13.34 4.66107L14.76 3.25107L17.58 6.07107L16.17 7.49107Z"/>
</svg>
