<svg width="37" height="36" viewBox="0 0 37 36" fill="none" xmlns="http://www.w3.org/2000/svg">
<path d="M0.984374 3.351C0.926665 1.61273 2.47933 0.0137396 4.22848 0.00145024C14.0295 8.47489e-05 23.8305 8.44572e-05 33.6329 8.44572e-05C35.0702 -0.0108395 36.4195 1.03922 36.8193 2.40061C37.0378 3.13525 36.8756 3.91085 36.9732 4.66187C36.9237 6.2472 36.9004 7.84209 36.9814 9.42742C36.8949 10.1784 36.943 10.9363 36.9375 11.6914C36.9306 14.2394 36.9402 16.786 36.9334 19.3327C36.9251 19.9704 37.0089 20.6299 36.8014 21.2457C36.3961 22.5976 35.066 23.6367 33.6357 23.6367C31.9195 23.6299 30.2019 23.6367 28.4858 23.6312C29.0299 25.5907 28.9461 27.7222 28.2027 29.6189C27.3041 31.9716 25.4684 33.9489 23.1875 35.0385C21.4603 35.8783 19.4734 36.1842 17.5731 35.892C15.2758 35.5561 13.1295 34.3558 11.6098 32.6175C9.76448 30.5556 8.84525 27.6867 9.2396 24.9462C9.71227 21.2594 12.5002 18.0191 16.0521 16.898C16.7817 16.6591 17.5415 16.5334 18.3041 16.4529C18.0183 16.1361 17.5319 15.8561 17.591 15.3659C17.6212 14.8389 18.3371 14.5507 18.726 14.9112C19.3195 15.4506 19.8568 16.0473 20.4504 16.5867C20.7664 16.8338 20.8118 17.3514 20.5026 17.6231C19.8884 18.1925 19.3223 18.8124 18.7012 19.3736C18.3096 19.7109 17.6405 19.4023 17.5924 18.9053C17.5209 18.4315 17.9854 18.1502 18.2657 17.847C15.8364 18.0641 13.4854 19.2931 12.0921 21.3072C9.72326 24.5871 10.1341 29.5575 13.1295 32.3239C16.0315 35.13 21.0027 35.3663 24.185 32.892C27.1062 30.7291 28.2384 26.5384 26.8397 23.2052C26.6157 22.7874 26.9812 22.2303 27.4401 22.218C29.5025 22.248 31.565 22.2234 33.6274 22.2343C34.2114 22.2521 34.8407 22.05 35.1883 21.5571C35.6129 20.9958 35.525 20.2571 35.5277 19.5989C35.5263 16.3996 35.5263 13.1989 35.5277 9.99956C24.4832 10.0009 13.4373 9.99956 2.39276 9.99956C2.39826 13.5171 2.38315 17.0373 2.39963 20.5548C2.39689 21.3481 3.00833 22.1033 3.81352 22.1975C4.86191 22.2849 5.91855 22.1934 6.96831 22.2439C7.50831 22.248 7.79686 22.9744 7.44785 23.3677C7.21152 23.6886 6.7732 23.6271 6.42282 23.6381C5.69046 23.6299 4.95672 23.6367 4.22436 23.6312C2.52742 23.6176 1.00911 22.1101 0.984374 20.4264C0.992619 14.7337 0.974756 9.04235 0.984374 3.351ZM2.76513 2.0374C2.29383 2.62729 2.40101 3.422 2.39139 4.1225C13.4359 4.12796 24.4818 4.12113 35.5263 4.12659C35.514 3.46433 35.6308 2.73516 35.2488 2.148C34.9094 1.60727 34.243 1.38059 33.6274 1.40108C23.8745 1.39971 14.1202 1.40517 4.36588 1.39835C3.77642 1.38059 3.13337 1.54855 2.76513 2.0374ZM2.39551 5.52759C2.38864 6.5517 2.39276 7.57582 2.39551 8.6013C13.4387 8.59994 24.4832 8.60267 35.5263 8.59994C35.5195 7.57582 35.5387 6.5517 35.525 5.52759C24.4818 5.52485 13.4387 5.52485 2.39551 5.52759Z" fill="#010101"/>
<path d="M17.6271 22.039C18.703 22.0377 19.7981 21.9421 20.8643 22.1087C22.3208 22.4596 23.5039 23.8305 23.5039 25.3408C23.4475 26.8865 22.1985 28.2957 20.6665 28.5592C19.9231 28.6453 19.1729 28.5592 18.4268 28.6125C18.4295 28.8869 18.4309 29.16 18.4323 29.4345C19.1372 29.4523 19.8489 29.3799 20.5497 29.4686C21.1749 29.6298 21.1968 30.6198 20.5703 30.7959C19.864 30.8833 19.1468 30.8068 18.435 30.8341C18.4117 31.2219 18.5298 31.7067 18.1891 31.9921C17.8442 32.3157 17.2053 32.1505 17.0624 31.7026C17.0019 31.4172 17.028 31.1223 17.0211 30.8341C16.6227 30.8123 16.1926 30.9051 15.8175 30.7372C15.3256 30.4818 15.3888 29.6762 15.9068 29.4891C16.2695 29.3908 16.6529 29.4372 17.0253 29.4236C17.0239 29.1478 17.0239 28.8719 17.0253 28.5961C16.5663 28.5565 15.9824 28.7395 15.6389 28.3435C15.2871 27.9762 15.5234 27.3125 16.0126 27.217C16.3451 27.1678 16.6818 27.1978 17.017 27.1978C17.0418 25.7122 17.0115 24.2252 17.0308 22.7395C17.0102 22.3995 17.2808 22.065 17.6271 22.039ZM18.4309 23.4264C18.4405 24.6785 18.424 25.932 18.4378 27.1842C19.3323 27.1432 20.29 27.3617 21.1364 26.993C22.5132 26.3389 22.3854 23.9603 20.8904 23.526C20.088 23.3431 19.2485 23.4537 18.4309 23.4264Z" fill="#010101"/>
</svg>
