<svg width="33" height="33" viewBox="0 0 33 33" fill="none" xmlns="http://www.w3.org/2000/svg">
<path d="M16.5 33C7.40231 33 0 25.5977 0 16.5C0 7.40231 7.40231 0 16.5 0C25.5977 0 33 7.40231 33 16.5C33 25.5977 25.5977 33 16.5 33ZM16.5 1.375C8.15994 1.375 1.375 8.15994 1.375 16.5C1.375 24.8401 8.15994 31.625 16.5 31.625C24.8401 31.625 31.625 24.8401 31.625 16.5C31.625 8.15994 24.8401 1.375 16.5 1.375Z" fill="black"/>
<path d="M16.5 28.875C10.4349 28.875 5.5 23.9401 5.5 17.875C5.5 17.4948 5.808 17.1875 6.1875 17.1875C6.567 17.1875 6.875 17.4948 6.875 17.875C6.875 23.1825 11.1925 27.5 16.5 27.5C21.8075 27.5 26.125 23.1825 26.125 17.875C26.125 17.4948 26.433 17.1875 26.8125 17.1875C27.192 17.1875 27.5 17.4948 27.5 17.875C27.5 23.9401 22.5651 28.875 16.5 28.875Z" fill="black"/>
<path d="M13.0625 14.4375C12.683 14.4375 12.375 14.1302 12.375 13.75C12.375 12.6129 11.4496 11.6875 10.3125 11.6875C9.17537 11.6875 8.25 12.6129 8.25 13.75C8.25 14.1302 7.942 14.4375 7.5625 14.4375C7.183 14.4375 6.875 14.1302 6.875 13.75C6.875 11.8546 8.41706 10.3125 10.3125 10.3125C12.2079 10.3125 13.75 11.8546 13.75 13.75C13.75 14.1302 13.442 14.4375 13.0625 14.4375Z" fill="black"/>
<path d="M25.4375 14.4375C25.058 14.4375 24.75 14.1302 24.75 13.75C24.75 12.6129 23.8246 11.6875 22.6875 11.6875C21.5504 11.6875 20.625 12.6129 20.625 13.75C20.625 14.1302 20.317 14.4375 19.9375 14.4375C19.558 14.4375 19.25 14.1302 19.25 13.75C19.25 11.8546 20.7921 10.3125 22.6875 10.3125C24.5829 10.3125 26.125 11.8546 26.125 13.75C26.125 14.1302 25.817 14.4375 25.4375 14.4375Z" fill="black"/>
</svg>
