<svg width="32" height="32" viewBox="0 0 32 32" fill="none" xmlns="http://www.w3.org/2000/svg">
<path d="M28.6667 29.3333H3.33333C1.49533 29.3333 0 27.838 0 26V7.33333C0 5.49533 1.49533 4 3.33333 4H28.6667C30.5047 4 32 5.49533 32 7.33333V26C32 27.838 30.5047 29.3333 28.6667 29.3333ZM3.33333 5.33333C2.23067 5.33333 1.33333 6.23067 1.33333 7.33333V26C1.33333 27.1027 2.23067 28 3.33333 28H28.6667C29.7693 28 30.6667 27.1027 30.6667 26V7.33333C30.6667 6.23067 29.7693 5.33333 28.6667 5.33333H3.33333Z" fill="black"/>
<path d="M31.3333 12H0.666667C0.298 12 0 11.7014 0 11.3334C0 10.9654 0.298 10.6667 0.666667 10.6667H31.3333C31.702 10.6667 32 10.9654 32 11.3334C32 11.7014 31.702 12 31.3333 12Z" fill="black"/>
<path d="M5.33333 9.33329C6.06971 9.33329 6.66667 8.73634 6.66667 7.99996C6.66667 7.26358 6.06971 6.66663 5.33333 6.66663C4.59695 6.66663 4 7.26358 4 7.99996C4 8.73634 4.59695 9.33329 5.33333 9.33329Z" fill="black"/>
<path d="M9.33333 9.33329C10.0697 9.33329 10.6667 8.73634 10.6667 7.99996C10.6667 7.26358 10.0697 6.66663 9.33333 6.66663C8.59695 6.66663 8 7.26358 8 7.99996C8 8.73634 8.59695 9.33329 9.33333 9.33329Z" fill="black"/>
<path d="M13.3333 9.33329C14.0697 9.33329 14.6667 8.73634 14.6667 7.99996C14.6667 7.26358 14.0697 6.66663 13.3333 6.66663C12.597 6.66663 12 7.26358 12 7.99996C12 8.73634 12.597 9.33329 13.3333 9.33329Z" fill="black"/>
</svg>
