<svg width="33" height="33" viewBox="0 0 33 33" fill="none" xmlns="http://www.w3.org/2000/svg">
<path d="M16.5 22C17.2594 22 17.875 21.3844 17.875 20.625C17.875 19.8656 17.2594 19.25 16.5 19.25C15.7406 19.25 15.125 19.8656 15.125 20.625C15.125 21.3844 15.7406 22 16.5 22Z" fill="black"/>
<path d="M16.5 26.125C16.1198 26.125 15.8125 25.8177 15.8125 25.4375V21.3125C15.8125 20.9323 16.1198 20.625 16.5 20.625C16.8802 20.625 17.1875 20.9323 17.1875 21.3125V25.4375C17.1875 25.8177 16.8802 26.125 16.5 26.125Z" fill="black"/>
<path d="M28.875 33H4.125V12.375H28.875V33ZM5.5 31.625H27.5V13.75H5.5V31.625Z" fill="black"/>
<path d="M24.75 13.0625H23.375V8.25C23.375 4.45913 20.2909 1.375 16.5 1.375C12.7091 1.375 9.625 4.45913 9.625 8.25H8.25C8.25 3.70081 11.9508 0 16.5 0C21.0492 0 24.75 3.70081 24.75 8.25V13.0625Z" fill="black"/>
</svg>
