<svg viewBox="0 0 16 12" fill="none" xmlns="http://www.w3.org/2000/svg">
<path d="M15.2693 0.810805C15.1686 0.709265 15.0488 0.628671 14.9168 0.573672C14.7848 0.518673 14.6432 0.490356 14.5001 0.490356C14.3571 0.490356 14.2155 0.518673 14.0835 0.573672C13.9515 0.628671 13.8317 0.709265 13.731 0.810805L5.66015 8.89247L2.26932 5.4908C2.16475 5.3898 2.04131 5.31037 1.90605 5.25707C1.77079 5.20376 1.62636 5.17762 1.481 5.18014C1.33564 5.18265 1.19219 5.21377 1.05886 5.27173C0.925522 5.32968 0.804907 5.41332 0.703899 5.51789C0.60289 5.62245 0.523467 5.74589 0.470163 5.88115C0.416858 6.01641 0.390717 6.16084 0.393232 6.3062C0.395747 6.45157 0.426869 6.59501 0.48482 6.72835C0.542771 6.86168 0.626417 6.9823 0.730982 7.0833L4.89098 11.2433C4.99169 11.3448 5.11151 11.4254 5.24352 11.4804C5.37554 11.5354 5.51714 11.5638 5.66015 11.5638C5.80316 11.5638 5.94476 11.5354 6.07677 11.4804C6.20879 11.4254 6.32861 11.3448 6.42932 11.2433L15.2693 2.4033C15.3793 2.30186 15.467 2.17874 15.5271 2.04169C15.5871 1.90465 15.6181 1.75666 15.6181 1.60705C15.6181 1.45744 15.5871 1.30946 15.5271 1.17241C15.467 1.03537 15.3793 0.91225 15.2693 0.810805Z" fill="currentColor"/>
</svg>
