<svg viewBox="0 0 36 36" fill="none" xmlns="http://www.w3.org/2000/svg">
<path d="M21.375 0H4.12425C1.845 0 0 1.845 0 4.12425V27.3735C0 29.655 1.845 31.5 4.12425 31.5H16.335C15.0143 29.7 14.2493 27.5107 14.2493 25.1257C14.2493 19.125 19.125 14.2515 25.1235 14.2515C25.2428 14.2515 25.3778 14.2515 25.4993 14.2672V4.12425C25.4993 1.845 23.6543 0 21.375 0ZM6.00075 6.00075H12.0015C12.8273 6.00075 13.5023 6.67575 13.5023 7.5015C13.5023 8.32725 12.825 9 11.9993 9H5.9985C5.175 9 4.5 8.325 4.5 7.49925C4.5 6.6735 5.175 6.00075 6.00075 6.00075ZM13.5 20.9993H6.00075C5.175 20.9993 4.5 20.3243 4.5 19.4985C4.5 18.6728 5.175 18 6.00075 18H13.5C14.3258 18 15.0008 18.675 15.0008 19.5007C15.0008 20.3265 14.3258 20.9993 13.5 20.9993ZM19.5008 15.0007H6.00075C5.175 15.0007 4.5 14.3258 4.5 13.5C4.5 12.6742 5.175 11.9993 6.00075 11.9993H19.5008C20.3265 11.9993 21.0015 12.6742 21.0015 13.5C20.9993 14.3258 20.3243 15.0007 19.5008 15.0007Z" fill="currentColor"/>
<path d="M25.1261 33.0007C20.7836 33.0007 17.2511 29.4682 17.2511 25.1257C17.2511 20.7832 20.7836 17.2507 25.1261 17.2507C29.4686 17.2507 33.0011 20.7832 33.0011 25.1257C33.0011 29.4682 29.4686 33.0007 25.1261 33.0007ZM25.1261 20.25C22.4373 20.25 20.2503 22.437 20.2503 25.1257C20.2503 27.8145 22.4373 30.0015 25.1261 30.0015C27.8148 30.0015 30.0018 27.8145 30.0018 25.1257C29.9996 22.437 27.8126 20.25 25.1261 20.25Z" fill="currentColor" opacity="0.85" />
<path d="M34.4993 36C34.1146 36 33.7321 35.8537 33.4396 35.5612L28.5638 30.6855C27.9788 30.1005 27.9788 29.151 28.5638 28.5637C29.1488 27.9765 30.0983 27.9787 30.6856 28.5637L35.5613 33.4395C36.1463 34.0245 36.1463 34.974 35.5613 35.5612C35.2688 35.8537 34.8841 36 34.4993 36Z" fill="currentColor" opacity="0.85"/>
</svg>
