<svg viewBox="0 0 36 36" fill="none" xmlns="http://www.w3.org/2000/svg">
<path d="M21.7928 0H4.20487C1.88107 0 0 1.87429 0 4.18971V27.808C0 30.1257 1.88107 32 4.20487 32H14.2823C13.4565 30.2629 12.9977 28.3269 12.9977 26.2857C12.9977 24.5326 13.3349 22.8571 13.9612 21.3189C13.8992 21.3349 13.8396 21.3349 13.7616 21.3349H6.11576C5.27387 21.3349 4.58567 20.6491 4.58567 19.8103C4.58567 18.9714 5.27616 18.2857 6.11805 18.2857H13.7639C14.3443 18.2857 14.865 18.6217 15.1105 19.1086C16.1038 17.5703 17.3884 16.2583 18.9024 15.2389H6.11805C5.27616 15.2389 4.58797 14.5531 4.58797 13.7143C4.58797 12.8754 5.27616 12.1897 6.11805 12.1897H19.8819C20.7238 12.1897 21.412 12.8754 21.412 13.7143C21.412 13.7897 21.412 13.8514 21.396 13.9131C22.8182 13.3349 24.3782 12.9989 26 12.9691V4.192C25.9977 1.87428 24.1166 0 21.7928 0ZM12.2338 9.14286H6.11576C5.27616 9.14286 4.58797 8.45714 4.58797 7.61829C4.58797 6.77943 5.27616 6.09372 6.11805 6.09372H12.2361C13.078 6.09372 13.7662 6.77943 13.7662 7.61829C13.7662 8.45714 13.0757 9.14286 12.2338 9.14286Z" fill="currentColor"/>
<path d="M26 16C20.4867 16 16 20.4867 16 26C16 31.5133 20.4867 36 26 36C31.5133 36 36 31.5133 36 26C36 20.4867 31.5133 16 26 16ZM30.0733 27.4822H27.48V30.0756C27.48 30.8933 26.8156 31.5578 25.9978 31.5578C25.18 31.5578 24.5156 30.8933 24.5156 30.0756V27.4822H21.9222C21.1089 27.4822 20.4444 26.8178 20.4444 26C20.4444 25.1822 21.1089 24.5178 21.9267 24.5178H24.52V21.9244C24.52 21.1067 25.1844 20.4422 26.0022 20.4422C26.82 20.4422 27.4844 21.1067 27.4844 21.9244V24.5178H30.0778C30.8956 24.5178 31.56 25.1822 31.56 26C31.56 26.8178 30.8933 27.4822 30.0733 27.4822Z" fill="currentColor" opacity="0.85"/>
</svg>
