<svg viewBox="0 0 21 20" fill="none" xmlns="http://www.w3.org/2000/svg">
<path d="M9.68813 16.2312L4.80923 18.7903L5.74041 13.3733C5.83786 12.8064 5.64933 12.2285 5.23741 11.8279L1.29489 7.99359L6.74547 7.20337C7.31341 7.12103 7.80543 6.76495 8.06029 6.24972L10.5 1.31764L12.9396 6.24972C13.1945 6.76495 13.6865 7.12103 14.2544 7.20337L19.705 7.99359L15.7625 11.8279C15.3506 12.2285 15.162 12.8064 15.2595 13.3733L16.1907 18.7903L11.3118 16.2312C10.8035 15.9645 10.1964 15.9645 9.68813 16.2312ZM16.2781 19.2987C16.278 19.2985 16.278 19.2982 16.2779 19.298L16.2781 19.2987Z" stroke="currentColor" stroke-width="2"/>
</svg>
