<svg viewBox="0 0 20 20" fill="none" xmlns="http://www.w3.org/2000/svg">
<path fill-rule="evenodd" clip-rule="evenodd" d="M9.66918 17.1167L4.58975 19.9143C4.24226 20.1057 3.81248 19.9657 3.62979 19.6017C3.55705 19.4567 3.53195 19.2907 3.55838 19.1293L4.52844 13.2039C4.56799 12.9624 4.49154 12.7159 4.32401 12.5448L0.214683 8.34842C-0.0664394 8.06134 -0.0722302 7.58987 0.201797 7.29536C0.310916 7.17809 0.453922 7.10177 0.608626 7.07822L6.28761 6.21372C6.51913 6.17847 6.71927 6.02613 6.82281 5.80635L9.36253 0.415277C9.53627 0.0464704 9.9625 -0.104952 10.3145 0.0770648C10.4547 0.149545 10.5682 0.268416 10.6374 0.415277L13.1771 5.80635C13.2806 6.02613 13.4808 6.17847 13.7123 6.21372L19.3913 7.07822C19.7798 7.13736 20.049 7.51524 19.9925 7.92224C19.97 8.08431 19.8972 8.2341 19.7852 8.34842L15.6759 12.5448C15.5084 12.7159 15.4319 12.9624 15.4715 13.2039L16.4415 19.1293C16.5079 19.5346 16.248 19.9196 15.8611 19.9891C15.707 20.0168 15.5485 19.9905 15.4102 19.9143L10.3307 17.1167C10.1236 17.0027 9.87626 17.0027 9.66918 17.1167Z" fill="currentColor"/>
</svg>
