<svg viewBox="0 0 17 21" fill="none" xmlns="http://www.w3.org/2000/svg">
<path d="M0.833374 10.5C0.833374 10.7541 0.934341 10.9979 1.11406 11.1776C1.29379 11.3573 1.53754 11.4583 1.79171 11.4583H9.06546L6.86129 13.6529C6.77147 13.742 6.70017 13.848 6.65152 13.9647C6.60287 14.0815 6.57782 14.2068 6.57782 14.3333C6.57782 14.4598 6.60287 14.5851 6.65152 14.7018C6.70017 14.8186 6.77147 14.9246 6.86129 15.0137C6.95038 15.1035 7.05637 15.1748 7.17315 15.2235C7.28994 15.2721 7.4152 15.2972 7.54171 15.2972C7.66822 15.2972 7.79348 15.2721 7.91026 15.2235C8.02704 15.1748 8.13303 15.1035 8.22212 15.0137L12.0555 11.1804C12.1427 11.0892 12.2111 10.9818 12.2567 10.8641C12.3526 10.6308 12.3526 10.3691 12.2567 10.1358C12.2111 10.0182 12.1427 9.91068 12.0555 9.81954L8.22212 5.98621C8.13277 5.89686 8.02669 5.82598 7.90995 5.77762C7.7932 5.72926 7.66807 5.70437 7.54171 5.70437C7.41534 5.70437 7.29021 5.72926 7.17347 5.77762C7.05672 5.82598 6.95064 5.89686 6.86129 5.98621C6.77194 6.07556 6.70106 6.18164 6.6527 6.29839C6.60434 6.41513 6.57945 6.54026 6.57945 6.66663C6.57945 6.79299 6.60434 6.91812 6.6527 7.03486C6.70106 7.15161 6.77194 7.25769 6.86129 7.34704L9.06546 9.54163H1.79171C1.53754 9.54163 1.29379 9.64259 1.11406 9.82232C0.934341 10.002 0.833374 10.2458 0.833374 10.5ZM13.2917 0.916626H3.70837C2.94588 0.916626 2.21461 1.21953 1.67544 1.75869C1.13628 2.29786 0.833374 3.02913 0.833374 3.79163V6.66663C0.833374 6.92079 0.934341 7.16455 1.11406 7.34427C1.29379 7.52399 1.53754 7.62496 1.79171 7.62496C2.04587 7.62496 2.28963 7.52399 2.46935 7.34427C2.64907 7.16455 2.75004 6.92079 2.75004 6.66663V3.79163C2.75004 3.53746 2.85101 3.2937 3.03073 3.11398C3.21045 2.93426 3.45421 2.83329 3.70837 2.83329H13.2917C13.5459 2.83329 13.7896 2.93426 13.9694 3.11398C14.1491 3.2937 14.25 3.53746 14.25 3.79163V17.2083C14.25 17.4625 14.1491 17.7062 13.9694 17.8859C13.7896 18.0657 13.5459 18.1666 13.2917 18.1666H3.70837C3.45421 18.1666 3.21045 18.0657 3.03073 17.8859C2.85101 17.7062 2.75004 17.4625 2.75004 17.2083V14.3333C2.75004 14.0791 2.64907 13.8354 2.46935 13.6556C2.28963 13.4759 2.04587 13.375 1.79171 13.375C1.53754 13.375 1.29379 13.4759 1.11406 13.6556C0.934341 13.8354 0.833374 14.0791 0.833374 14.3333V17.2083C0.833374 17.9708 1.13628 18.7021 1.67544 19.2412C2.21461 19.7804 2.94588 20.0833 3.70837 20.0833H13.2917C14.0542 20.0833 14.7855 19.7804 15.3246 19.2412C15.8638 18.7021 16.1667 17.9708 16.1667 17.2083V3.79163C16.1667 3.02913 15.8638 2.29786 15.3246 1.75869C14.7855 1.21953 14.0542 0.916626 13.2917 0.916626Z" fill="currentColor"/>
</svg>
