<svg id="Layer_1" data-name="Layer 1" xmlns="http://www.w3.org/2000/svg" viewBox="0 0 389.08 141.07"><defs><style>.cls-1{fill:#fff;}.cls-2{fill:#2fb7f5;}.cls-3{fill:#3742fa;}.cls-4{fill:none;stroke-linecap:square;}.cls-4,.cls-5{stroke:#3742fa;stroke-miterlimit:10;stroke-width:15px;}.cls-5{fill:#ef006b;}</style></defs><path class="cls-1" d="M80.69,97.89l48.37-48.37a19,19,0,0,1,13.7-5.63c9,0,17.84,5.68,22.72,10.56l1.7,1.7a8.28,8.28,0,0,1,1.72,2.41,29.15,29.15,0,0,1,4.43,10.26,27.43,27.43,0,0,1,14,7.53l2.2,2.2a27.75,27.75,0,0,1,0,39.15L145,162.24Z" transform="translate(-72.21 -29.66)"/><path class="cls-2" d="M142.76,49.89c7,0,14.3,4.63,18.47,8.8l2.18,2.17-2.18-2.17h0A23.12,23.12,0,0,1,168,74.28a21.58,21.58,0,0,1,15.15,6.32l2.2,2.19a21.75,21.75,0,0,1,0,30.66L145,153.75l-23-23-.62-.63-9.23-9.22-23-23L133.3,53.76a12.93,12.93,0,0,1,9.46-3.87m0-12v0a24.83,24.83,0,0,0-17.94,7.39L80.69,89.4l-8.48,8.49,8.48,8.49,23,23,9.22,9.22.63.63,23,23,8.49,8.48,8.48-8.48,40.3-40.3a33.74,33.74,0,0,0,0-47.63l-2.19-2.2a33.41,33.41,0,0,0-13.44-8.22,35,35,0,0,0-3.85-8,12.41,12.41,0,0,0-2.59-3.67l-.46-.46-1.57-1.58c-6-6-16.17-12.31-27-12.31Z" transform="translate(-72.21 -29.66)"/><path class="cls-1" d="M88.92,89.66l48.37-48.37A19,19,0,0,1,151,35.66c9,0,17.85,5.68,22.72,10.56l2.17,2.17-.11.11a29,29,0,0,1,5.79,12.09,27.43,27.43,0,0,1,14.05,7.53l2.2,2.2a27.71,27.71,0,0,1,0,39.14L153.27,154Z" transform="translate(-72.21 -29.66)"/><path class="cls-3" d="M151,41.66c6.95,0,14.3,4.63,18.47,8.8l2.18,2.17-2.17-2.17h0a23.14,23.14,0,0,1,6.75,15.59,21.58,21.58,0,0,1,15.15,6.32l2.2,2.19a21.75,21.75,0,0,1,0,30.66l-40.3,40.3-23-23-.62-.62-9.23-9.23-23-23,44.12-44.13A12.93,12.93,0,0,1,151,41.66m0-12v0a24.83,24.83,0,0,0-17.94,7.39L88.92,81.17l-8.48,8.49,8.48,8.48,23,23,9.22,9.22.63.63,23,23,8.49,8.48,8.48-8.48,40.3-40.3a33.74,33.74,0,0,0,0-47.63l-2.19-2.2a33.41,33.41,0,0,0-13.44-8.22,35,35,0,0,0-3.85-8A12.41,12.41,0,0,0,180,44l-.46-.47L178,42C172,36,161.79,29.66,151,29.66Z" transform="translate(-72.21 -29.66)"/><polyline class="cls-4" points="81.63 35.4 69.71 47.32 81.95 83.16 105.67 59.44"/><path class="cls-5" d="M165.78,101.19c0,.21-23.89,24.1-23.89,24.1" transform="translate(-72.21 -29.66)"/><path d="M243.82,71.57h23.69q16.71,0,16.7,11.75,0,5.94-5.87,9.44,8.18,2.83,8.18,11.55a14.68,14.68,0,0,1-1.48,6.83,10.9,10.9,0,0,1-4.13,4.45,19.17,19.17,0,0,1-5.67,2.28,30.49,30.49,0,0,1-6.74.69H243.82Zm14,10.69v7.26h8.12a4.87,4.87,0,0,0,3.2-1A3.22,3.22,0,0,0,270.29,86c0-2.46-1.68-3.7-5-3.7Zm0,16.31v8.84h8.91q5.47,0,5.48-4.36t-5.48-4.48Z" transform="translate(-72.21 -29.66)"/><path d="M330.74,97.77V108.6h-6v10h-13.4v-10h-20.2v-12l20.53-23.7h13.07V97.77Zm-18.94.07V89.13l.2-4.23L301.11,98c2-.13,3.34-.2,4.09-.2Z" transform="translate(-72.21 -29.66)"/><path d="M363.87,71.57l17.3,47H366.58l-2.31-6.66H349.16l-2.31,6.66H332.26l17.36-47ZM361.1,101.8l-2.51-8q-.85-2.84-1.78-7.13c-.7,2.82-1.36,5.21-2,7.19q-1,3.24-2.57,8Z" transform="translate(-72.21 -29.66)"/><path d="M419.71,106.29v12.27H384.4v-47h14.45v34.72Z" transform="translate(-72.21 -29.66)"/><path d="M461.29,106.29v12.27H426v-47h14.45v34.72Z" transform="translate(-72.21 -29.66)"/></svg>