<svg id="Layer_1" data-name="Layer 1" xmlns="http://www.w3.org/2000/svg" viewBox="0 0 139.67 141.05"><defs><style>.cls-1{fill:#fff;}.cls-2{fill:#2fb7f5;}.cls-3{fill:#3742fa;}.cls-4{fill:none;stroke-linecap:square;}.cls-4,.cls-5{stroke:#3742fa;stroke-miterlimit:10;stroke-width:15px;}.cls-5{fill:#ef006b;}</style></defs><path class="cls-1" d="M8.48,68.23,56.85,19.86a19,19,0,0,1,13.7-5.63c9,0,17.84,5.68,22.72,10.56l1.7,1.7a8.23,8.23,0,0,1,1.72,2.41,29.22,29.22,0,0,1,4.43,10.26,27.37,27.37,0,0,1,14,7.53l2.2,2.2a27.76,27.76,0,0,1,0,39.15L72.79,132.58Z" transform="translate(0 0)"/><path class="cls-2" d="M70.55,20.23c7,0,14.3,4.63,18.47,8.8L91.2,31.2,89,29h0a23.16,23.16,0,0,1,6.77,15.59,21.58,21.58,0,0,1,15.15,6.32l2.2,2.19a21.75,21.75,0,0,1,0,30.66l-40.35,40.3-23-23-.62-.63-9.23-9.22-23-23L61.09,24.1a13,13,0,0,1,9.46-3.87m0-12h0a24.86,24.86,0,0,0-17.94,7.39L8.48,59.74,0,68.23l8.48,8.49,23,23,9.22,9.22.63.63,23,23,8.49,8.48,8.48-8.48,40.3-40.3a33.74,33.74,0,0,0,0-47.63l-2.19-2.2A33.44,33.44,0,0,0,106,34.22a34.9,34.9,0,0,0-3.85-8,12.41,12.41,0,0,0-2.59-3.67l-.46-.46L97.5,20.51c-6-6-16.17-12.31-27-12.31Z" transform="translate(0 0)"/><path class="cls-1" d="M16.71,60,65.08,11.63A19,19,0,0,1,78.79,6c9,0,17.85,5.68,22.72,10.56l2.17,2.17-.11.11a29,29,0,0,1,5.79,12.09,27.33,27.33,0,0,1,14,7.53l2.2,2.2a27.71,27.71,0,0,1,0,39.14L81.06,124.34Z" transform="translate(0 0)"/><path class="cls-3" d="M78.79,12c6.95,0,14.3,4.63,18.47,8.8L99.44,23,97.27,20.8h0A23.11,23.11,0,0,1,104,36.39a21.58,21.58,0,0,1,15.15,6.32l2.2,2.19a21.75,21.75,0,0,1,0,30.66l-40.3,40.3-23-23-.62-.62L48.22,83l-23-23L69.34,15.88A12.9,12.9,0,0,1,78.79,12m0-12h0A24.86,24.86,0,0,0,60.85,7.39L16.71,51.51,8.23,60l8.48,8.48,23,23,9.22,9.22.63.63,23,23,8.49,8.48,8.48-8.48L129.83,84a33.74,33.74,0,0,0,0-47.63l-2.19-2.2A33.44,33.44,0,0,0,114.2,26a34.9,34.9,0,0,0-3.85-8,12.37,12.37,0,0,0-2.56-3.64l-.46-.47-1.54-1.53C99.79,6.34,89.58,0,78.79,0Z" transform="translate(0 0)"/><polyline class="cls-4" points="81.63 35.4 69.71 47.32 81.95 83.16 105.67 59.44"/><path class="cls-5" d="M93.57,71.53c0,.21-23.89,24.1-23.89,24.1" transform="translate(0 0)"/></svg>