<svg width="1248" height="519" viewBox="0 0 1248 519" fill="none" xmlns="http://www.w3.org/2000/svg">
<g filter="url(#filter0_d)">
<mask id="mask0" mask-type="alpha" maskUnits="userSpaceOnUse" x="45" y="36" width="1158" height="429">
<mask id="path-1-outside-1" mask-type="luminance" maskUnits="userSpaceOnUse" x="45.9932" y="36" width="1157" height="429" fill="black">
<rect fill="white" x="45.9932" y="36" width="1157" height="429"/>
<path fill-rule="evenodd" clip-rule="evenodd" d="M47.9932 78C47.9932 59.1438 47.9932 49.7157 53.851 43.8579C59.7089 38 69.137 38 87.9932 38H283.305H378.757H478.619H713.106H1160.01C1178.86 38 1188.29 38 1194.15 43.8579C1200.01 49.7157 1200.01 59.1438 1200.01 78V422.087C1200.01 440.943 1200.01 450.371 1194.15 456.229C1188.29 462.087 1178.86 462.087 1160.01 462.087H713.106H478.619H378.757H283.305H87.9931C69.137 462.087 59.7089 462.087 53.851 456.229C47.9932 450.371 47.9932 440.943 47.9932 422.087V78Z"/>
</mask>
<path fill-rule="evenodd" clip-rule="evenodd" d="M47.9932 78C47.9932 59.1438 47.9932 49.7157 53.851 43.8579C59.7089 38 69.137 38 87.9932 38H283.305H378.757H478.619H713.106H1160.01C1178.86 38 1188.29 38 1194.15 43.8579C1200.01 49.7157 1200.01 59.1438 1200.01 78V422.087C1200.01 440.943 1200.01 450.371 1194.15 456.229C1188.29 462.087 1178.86 462.087 1160.01 462.087H713.106H478.619H378.757H283.305H87.9931C69.137 462.087 59.7089 462.087 53.851 456.229C47.9932 450.371 47.9932 440.943 47.9932 422.087V78Z" fill="#C4C4C4"/>
<path d="M1194.15 456.229L1195.56 457.643L1194.15 456.229ZM53.851 456.229L52.4368 457.643H52.4368L53.851 456.229ZM52.4368 42.4437C49.0743 45.8061 47.5053 50.12 46.7432 55.7881C45.9889 61.3986 45.9932 68.6284 45.9932 78H49.9932C49.9932 68.5153 49.9974 61.6031 50.7076 56.3211C51.41 51.0966 52.7698 47.7675 55.2652 45.2721L52.4368 42.4437ZM87.9932 36C78.6216 36 71.3918 35.9958 65.7812 36.7501C60.1132 37.5121 55.7993 39.0812 52.4368 42.4437L55.2652 45.2721C57.7606 42.7767 61.0897 41.4168 66.3142 40.7144C71.5963 40.0042 78.5085 40 87.9932 40V36ZM283.305 36H87.9932V40H283.305V36ZM283.305 40H378.757V36H283.305V40ZM378.757 40H478.619V36H378.757V40ZM478.619 40H713.106V36H478.619V40ZM713.106 40H1160.01V36H713.106V40ZM1160.01 40C1169.49 40 1176.4 40.0042 1181.69 40.7144C1186.91 41.4168 1190.24 42.7767 1192.73 45.2721L1195.56 42.4436C1192.2 39.0812 1187.89 37.5121 1182.22 36.7501C1176.61 35.9958 1169.38 36 1160.01 36V40ZM1192.73 45.2721C1195.23 47.7675 1196.59 51.0966 1197.29 56.3211C1198 61.6031 1198.01 68.5154 1198.01 78H1202.01C1202.01 68.6285 1202.01 61.3986 1201.26 55.7881C1200.49 50.12 1198.93 45.8061 1195.56 42.4436L1192.73 45.2721ZM1198.01 78V422.087H1202.01V78H1198.01ZM1198.01 422.087C1198.01 431.571 1198 438.483 1197.29 443.765C1196.59 448.99 1195.23 452.319 1192.73 454.814L1195.56 457.643C1198.93 454.28 1200.49 449.967 1201.26 444.298C1202.01 438.688 1202.01 431.458 1202.01 422.087H1198.01ZM1192.73 454.814C1190.24 457.31 1186.91 458.67 1181.69 459.372C1176.4 460.082 1169.49 460.087 1160.01 460.087V464.087C1169.38 464.087 1176.61 464.091 1182.22 463.336C1187.89 462.574 1192.2 461.005 1195.56 457.643L1192.73 454.814ZM1160.01 460.087H713.106V464.087H1160.01V460.087ZM713.106 460.087H478.619V464.087H713.106V460.087ZM478.619 460.087H378.757V464.087H478.619V460.087ZM378.757 460.087H283.305V464.087H378.757V460.087ZM87.9931 464.087H283.305V460.087H87.9931V464.087ZM52.4368 457.643C55.7993 461.005 60.1132 462.574 65.7812 463.336C71.3917 464.091 78.6216 464.087 87.9931 464.087V460.087C78.5085 460.087 71.5962 460.082 66.3142 459.372C61.0897 458.67 57.7606 457.31 55.2652 454.814L52.4368 457.643ZM45.9932 422.087C45.9932 431.458 45.9889 438.688 46.7432 444.298C47.5053 449.966 49.0743 454.28 52.4368 457.643L55.2652 454.814C52.7698 452.319 51.41 448.99 50.7076 443.765C49.9974 438.483 49.9932 431.571 49.9932 422.087H45.9932ZM45.9932 78V422.087H49.9932V78H45.9932Z" fill="black" mask="url(#path-1-outside-1)"/>
</mask>
<g mask="url(#mask0)">
<g filter="url(#filter1_f)">
<path d="M588.664 267.565C572.469 268.369 570.32 289.3 572.379 300.169C578.166 330.73 -55.0659 254.487 -33.1079 275.867C-26.3586 282.438 449.046 1345.72 557.806 1130.33C494.886 1394.43 613.08 406.34 600.691 409.769C574.818 416.931 545.508 417.449 518.623 418.792C494.974 419.974 471.277 420.236 447.571 420.236C445.132 420.236 435.659 421.976 434.957 417.349C433.985 410.939 435.563 403.548 435.554 397.137C435.525 377.149 887.454 -135.646 882.069 -155.039C879.739 -163.426 420.586 321.774 418.178 313.403C417.747 311.904 415.63 307.391 416.37 305.462C419.078 298.408 439.922 297.69 446.043 296.86C463.038 294.556 294.756 -351.426 311.987 -352.106C335.005 -353.015 549.429 288.216 571.043 297.883C587.601 305.29 677.528 114.8 677.276 128.384C676.879 149.786 584.998 386.29 575.242 406.04C568.679 419.327 553.519 424.042 539.373 429.139C525.628 434.091 496.453 449.068 481.971 437.32C468.397 426.308 464.107 408.481 450.923 396.776C440.579 387.593 337.052 621.193 322.821 625.962C309.389 630.464 387.293 410.135 381.076 420.477C367.025 443.849 364.542 476.384 385.093 498.376C409.464 524.456 96.4955 508.035 126.95 498.376C147.568 491.836 -47.0553 263.86 -32.6879 249.459C-1.81111 218.511 567.542 391.166 529.306 363.391C516.152 353.835 489.085 343.422 471.87 350.397C461.5 354.6 455.786 372.04 451.742 380.234C442.35 399.261 437.064 421.109 450.409 440.267C458.729 452.21 -203.957 -153.945 233.016 23.2079C241.699 42.4053 37.0466 843.398 46.3999 862.404C57.7849 885.538 461.387 1015.66 485.536 1028.47C510.527 1041.73 606.621 609.434 630.889 623.857C636.253 627.044 638.625 629.233 641.378 633.782C643.718 637.648 655.901 635.68 659.493 635.467C671.423 634.756 682.828 629.596 693.798 625.962C727.3 614.867 760.171 603.217 792.339 589.389C823.913 575.816 895.735 603.693 926.607 588.907C943.1 581.009 687.805 110.398 702.168 99.6159C731.816 77.36 1187.86 217.043 1177.76 182.633C1172.91 166.117 796.276 -47.2029 787.616 -62.4416C777.14 -80.8762 922.535 353.572 906.941 338.367C893.368 325.133 879.663 312.019 865.805 299.026C1383.96 213.632 1277.85 221.559 1280.79 213.632C1285.37 201.252 880.125 252.95 891.465 249.459C927.548 238.352 969.026 235.289 1006.36 245.369C1035.94 253.354 1070.39 272.251 1063.74 304.079C1059.92 322.393 1039.7 331.609 1022.83 339.329C993.513 352.748 964.77 365.617 930.25 359.842C906.944 355.943 1054.19 195.875 1035.27 182.633C1022.16 173.459 1226.81 108.288 1231.55 94.9239C1280.16 -42.3179 862.045 283.736 865.387 275.867C952.952 34.2787 872.353 259.825 875.601 251.685C887.513 221.832 907.103 197.965 930.687 174.688C959.89 145.865 988.969 119.302 1026.96 99.6159C1041.02 92.3313 1055.61 85.6169 1070.39 79.5245C1072.43 78.6816 1081.5 73.8782 1085.07 75.795C1090.93 78.9427 1095.13 90.4263 1096.92 94.9239C1103.76 112.033 1107.73 130.086 1110.4 147.98C1115.9 184.82 1110.2 220.792 1106.53 257.339C1104.04 282.175 1097.25 311.325 1107.06 335.9C1116.22 358.852 1144.53 373.805 1161.93 391.362C1189.79 419.463 1209.15 449.348 1225.37 483.397C1234.75 503.089 1253.08 517.46 1275.85 524.182" stroke="url(#paint0_radial)" stroke-width="70" stroke-linecap="round" stroke-linejoin="round"/>
</g>
<g filter="url(#filter2_f)">
<path d="M747.446 190.698C729.623 191.353 718.58 208.397 716.273 217.247C709.786 242.133 57.7694 180.048 72.5704 197.458C77.1198 202.809 147.35 1068.64 354.56 893.246C176.548 1108.31 715.976 303.703 701.168 306.495C670.245 312.326 638.379 312.749 608.788 313.842C582.758 314.805 557.06 315.018 531.46 315.018C528.827 315.018 517.873 316.435 519.043 312.667C520.664 307.447 525.449 301.429 528.111 296.209C536.41 279.932 1238.13 -137.637 1240.4 -153.429C1241.38 -160.259 543.357 234.84 544.245 228.024C544.404 226.803 543.999 223.128 545.601 221.558C551.465 215.814 574.273 215.229 581.228 214.553C600.541 212.677 688.042 -313.347 706.932 -313.901C732.167 -314.641 696.472 207.514 715.782 215.386C730.577 221.417 907.071 66.3015 901.138 77.3625C891.789 94.7906 694.008 287.376 675.242 303.458C662.618 314.278 644.282 318.117 626.883 322.268C609.975 326.301 572.229 338.496 561.487 328.929C551.419 319.963 554.216 305.446 544.857 295.915C537.515 288.437 328.367 478.657 311.012 482.541C294.632 486.207 470.579 306.793 459.556 315.214C434.643 334.246 418.403 360.739 431.429 378.647C446.877 399.885 115.763 386.513 152.675 378.647C177.665 373.322 62.5133 187.681 84.0294 175.954C130.27 150.753 673.126 291.346 643.413 268.729C633.19 260.948 608.302 252.468 586.806 258.148C573.857 261.57 560.418 275.772 552.636 282.444C534.564 297.938 519.751 315.729 526.178 331.33C530.184 341.055 67.2086 -152.538 465.24 -8.28242C466.615 7.35008 -88.1978 659.6 -86.0184 675.076C-83.3657 693.914 298.23 799.876 318.969 810.306C340.431 821.098 624.36 469.082 644.555 480.827C649.018 483.422 650.667 485.205 651.744 488.909C652.66 492.057 666.636 490.455 670.604 490.281C683.782 489.702 698.249 485.5 711.609 482.541C752.409 473.506 792.761 464.02 833.261 452.759C873.011 441.707 938.95 464.407 978.449 452.367C999.55 445.936 920.004 62.7163 940.007 53.9367C981.298 35.8137 1415.53 149.558 1418.97 121.537C1420.62 108.088 1102.82 -65.618 1099.82 -78.0269C1096.19 -93.0382 1072.13 260.733 1061.63 248.352C1052.49 237.576 1043.15 226.897 1033.6 216.317C1628.72 146.78 1510.83 153.235 1517.31 146.78C1527.41 136.699 1068.27 178.797 1081.97 175.954C1125.56 166.909 1171.63 164.416 1207.74 172.623C1236.35 179.126 1265.68 194.514 1245.24 220.431C1233.47 235.344 1207.81 242.849 1186.37 249.135C1149.12 260.062 1112.72 270.542 1077.85 265.839C1054.31 262.664 1280.02 132.321 1265.11 121.537C1254.77 114.067 1502.93 60.9986 1513.61 50.116C1623.3 -61.6402 1035.92 203.866 1042.8 197.458C1238.04 0.732562 1057.01 184.395 1063.91 177.767C1089.22 153.457 1120.32 134.023 1155.48 115.068C1199.03 91.5974 1241.5 69.9668 1290.73 53.9367C1308.95 48.0049 1327.5 42.5374 1346 37.5763C1348.56 36.8899 1360.35 32.9785 1363.41 34.5393C1368.43 37.1025 1368.17 46.4537 1368.24 50.116C1368.48 64.0479 1365.25 78.7488 1360.67 93.3194C1351.26 123.319 1330.12 152.61 1310.92 182.371C1297.88 202.595 1278.4 226.332 1278.75 246.343C1279.08 265.033 1303.41 277.209 1314.89 291.506C1333.27 314.388 1341.71 338.724 1345.04 366.451C1346.96 382.486 1360.76 394.188 1382.55 399.661" stroke="url(#paint1_radial)" stroke-width="70" stroke-linecap="round" stroke-linejoin="round"/>
</g>
</g>
</g>
<defs>
<filter id="filter0_d" x="0.993164" y="0" width="1246.01" height="518.087" filterUnits="userSpaceOnUse" color-interpolation-filters="sRGB">
<feFlood flood-opacity="0" result="BackgroundImageFix"/>
<feColorMatrix in="SourceAlpha" type="matrix" values="0 0 0 0 0 0 0 0 0 0 0 0 0 0 0 0 0 0 127 0"/>
<feOffset dy="9"/>
<feGaussianBlur stdDeviation="22.5"/>
<feColorMatrix type="matrix" values="0 0 0 0 0.215686 0 0 0 0 0.258824 0 0 0 0 0.980392 0 0 0 0.16 0"/>
<feBlend mode="normal" in2="BackgroundImageFix" result="effect1_dropShadow"/>
<feBlend mode="normal" in="SourceGraphic" in2="effect1_dropShadow" result="shape"/>
</filter>
<filter id="filter1_f" x="-223.684" y="-542.098" width="1701.57" height="1907.29" filterUnits="userSpaceOnUse" color-interpolation-filters="sRGB">
<feFlood flood-opacity="0" result="BackgroundImageFix"/>
<feBlend mode="normal" in="SourceGraphic" in2="BackgroundImageFix" result="shape"/>
<feGaussianBlur stdDeviation="77.5" result="effect1_foregroundBlur"/>
</filter>
<filter id="filter2_f" x="-169.159" y="-390.454" width="1779.55" height="1396.8" filterUnits="userSpaceOnUse" color-interpolation-filters="sRGB">
<feFlood flood-opacity="0" result="BackgroundImageFix"/>
<feBlend mode="normal" in="SourceGraphic" in2="BackgroundImageFix" result="shape"/>
<feGaussianBlur stdDeviation="22.5" result="effect1_foregroundBlur"/>
</filter>
<radialGradient id="paint0_radial" cx="0" cy="0" r="1" gradientUnits="userSpaceOnUse" gradientTransform="translate(367.491 589.325) rotate(-45.6931) scale(877.728 778.832)">
<stop stop-color="#B2F426"/>
<stop offset="0.440022" stop-color="#00E0FF"/>
<stop offset="0.828125" stop-color="#9E65FB"/>
</radialGradient>
<radialGradient id="paint1_radial" cx="0" cy="0" r="1" gradientUnits="userSpaceOnUse" gradientTransform="translate(374.517 452.708) rotate(-28.0304) scale(1220.02 681.717)">
<stop stop-color="#567DF4"/>
<stop offset="0.583333" stop-color="#65FB6B"/>
<stop offset="1" stop-color="white"/>
</radialGradient>
</defs>
</svg>
