<svg width="1246" height="441" viewBox="0 0 1246 441" fill="none" xmlns="http://www.w3.org/2000/svg">
<g filter="url(#filter0_d)">
<mask id="mask0" mask-type="alpha" maskUnits="userSpaceOnUse" x="45" y="36" width="1157" height="351">
<path fill-rule="evenodd" clip-rule="evenodd" d="M45 76C45 57.1438 45 47.7157 50.8579 41.8579C56.7157 36 66.1438 36 85 36H280.988H377.046H476.977H712.552H1161C1179.86 36 1189.28 36 1195.14 41.8579C1201 47.7157 1201 57.1438 1201 76V347C1201 365.856 1201 375.284 1195.14 381.142C1189.28 387 1179.86 387 1161 387H712.552H476.977H377.046H280.988H85C66.1438 387 56.7157 387 50.8579 381.142C45 375.284 45 365.856 45 347V76Z" fill="#C4C4C4"/>
</mask>
<g mask="url(#mask0)">
<g filter="url(#filter1_f)">
<path d="M588.774 225.958C572.525 226.623 570.41 243.945 572.497 252.94C578.365 278.232 -57.2095 215.134 -35.133 232.828C-28.3474 238.267 450.816 1118.23 559.524 939.97C496.911 1158.54 613.55 340.806 601.125 343.644C575.177 349.571 545.767 350 518.791 351.112C495.062 352.09 471.284 352.306 447.496 352.306C445.048 352.306 435.546 353.746 434.833 349.917C433.844 344.612 435.413 338.496 435.391 333.19C435.323 316.648 887.797 -107.735 882.353 -123.785C879.999 -130.726 420.222 270.82 417.789 263.892C417.353 262.652 415.22 258.917 415.959 257.321C418.662 251.483 439.577 250.889 445.717 250.202C462.767 248.295 292.619 -286.312 309.907 -286.875C333.004 -287.627 549.444 243.048 571.152 251.049C587.782 257.178 677.641 99.5315 677.415 110.773C677.059 128.485 585.331 324.213 575.581 340.558C569.021 351.554 553.818 355.456 539.634 359.674C525.85 363.773 496.604 376.168 482.049 366.445C468.406 357.332 464.066 342.578 450.813 332.891C440.415 325.291 336.994 518.616 322.723 522.563C309.254 526.289 386.989 343.947 380.771 352.506C366.718 371.848 364.292 398.774 384.957 416.974C409.464 438.558 95.3803 424.968 125.921 416.974C146.598 411.562 -49.1526 222.891 -34.7641 210.974C-3.84199 185.361 567.825 328.248 529.401 305.262C516.182 297.354 489 288.736 471.741 294.509C461.343 297.987 455.644 312.42 451.602 319.201C442.215 334.948 436.954 353.029 450.384 368.884C458.756 378.768 -207.427 -122.88 231.409 23.7304C240.16 39.618 36.3924 702.511 45.8158 718.24C57.2862 737.385 462.544 845.076 486.802 855.676C511.905 866.645 607.472 508.885 631.853 520.821C637.242 523.459 639.626 525.27 642.398 529.035C644.754 532.235 656.975 530.606 660.58 530.429C672.549 529.841 683.983 525.57 694.984 522.563C728.579 513.381 761.542 503.739 793.794 492.295C825.449 481.063 897.575 504.133 928.525 491.897C945.059 485.36 687.945 95.8877 702.337 86.9649C732.043 68.5461 1189.94 184.146 1179.74 155.669C1174.84 142 796.478 -34.5408 787.758 -47.1522C777.209 -62.4084 923.971 297.136 908.292 284.552C894.647 273.6 880.868 262.747 866.936 251.994C1386.71 181.323 1280.26 187.884 1283.18 181.323C1287.76 171.078 881.215 213.862 892.586 210.974C928.772 201.781 970.387 199.247 1007.87 207.588C1037.57 214.197 1072.17 229.836 1065.57 256.176C1061.77 271.333 1041.5 278.96 1024.59 285.349C995.193 296.454 966.376 307.104 931.725 302.325C908.331 299.098 1055.77 166.628 1036.76 155.669C1023.58 148.076 1228.81 94.142 1233.54 83.0818C1282.05 -30.498 863.133 239.341 866.47 232.828C953.859 32.8925 873.429 219.552 876.672 212.815C888.566 188.11 908.176 168.358 931.796 149.094C961.043 125.24 990.169 103.256 1028.25 86.9649C1042.35 80.9363 1056.97 75.3795 1071.79 70.3374C1073.84 69.6399 1082.93 65.6646 1086.52 67.2509C1092.4 69.856 1096.64 79.3597 1098.45 83.0818C1105.34 97.241 1109.36 112.182 1112.07 126.99C1117.67 157.479 1112.02 187.249 1108.41 217.495C1105.96 238.049 1099.21 262.173 1109.1 282.511C1118.34 301.506 1146.77 313.881 1164.27 328.411C1192.29 351.666 1211.76 376.399 1228.11 404.578C1237.57 420.875 1255.98 432.768 1278.85 438.331" stroke="url(#paint0_radial)" stroke-width="70" stroke-linecap="round" stroke-linejoin="round"/>
</g>
<g filter="url(#filter2_f)">
<path d="M746.379 162.136C728.493 162.677 717.395 176.776 715.071 184.097C708.537 204.682 54.3259 153.327 69.1611 167.727C73.7209 172.154 143.343 888.347 351.442 743.265C172.603 921.158 714.689 255.61 699.827 257.92C668.791 262.744 636.814 263.093 607.119 263.998C580.998 264.794 555.211 264.97 529.523 264.97C526.881 264.97 515.887 266.142 517.065 263.025C518.697 258.708 523.504 253.73 526.181 249.411C534.524 235.948 1239.09 -109.454 1241.38 -122.517C1242.37 -128.166 541.539 198.649 542.437 193.011C542.598 192.001 542.195 188.961 543.805 187.662C549.695 182.911 572.582 182.427 579.562 181.868C598.944 180.316 687.264 -254.797 706.22 -255.255C731.543 -255.867 695.212 176.045 714.581 182.557C729.42 187.546 906.678 59.2384 900.713 68.3877C891.315 82.8038 692.66 242.105 673.814 255.408C661.135 264.357 642.732 267.534 625.269 270.967C608.299 274.303 570.41 284.391 559.64 276.477C549.546 269.06 552.367 257.052 542.985 249.168C535.625 242.983 325.566 400.328 308.147 403.541C291.707 406.573 468.44 258.166 457.37 265.132C432.352 280.875 416.03 302.789 429.083 317.603C444.563 335.169 112.318 324.109 149.365 317.603C174.446 313.198 59.0788 159.64 80.6809 149.94C127.106 129.094 671.703 245.389 641.909 226.681C631.658 220.244 606.692 213.23 585.116 217.929C572.119 220.759 558.62 232.507 550.804 238.026C532.654 250.842 517.773 265.558 524.206 278.462C528.217 286.507 64.1247 -121.78 463.392 -2.45547C464.756 10.4753 -92.6175 549.999 -90.4459 562.8C-87.8025 578.383 295.009 666.032 315.81 674.658C337.336 683.586 622.593 392.408 642.846 402.123C647.322 404.27 648.975 405.744 650.053 408.808C650.968 411.412 664.994 410.087 668.977 409.942C682.201 409.464 696.721 405.988 710.131 403.541C751.081 396.067 791.582 388.22 832.232 378.906C872.132 369.764 938.276 388.541 977.924 378.582C999.104 373.261 919.659 56.2728 939.74 49.0105C981.191 34.0197 1416.82 128.106 1420.3 104.928C1421.96 93.8034 1103.23 -49.882 1100.23 -60.1463C1096.6 -72.5632 1072.12 220.067 1061.59 209.825C1052.43 200.912 1043.07 192.079 1033.5 183.327C1630.74 125.808 1512.45 131.147 1518.95 125.808C1529.1 117.47 1068.32 152.291 1082.07 149.94C1125.83 142.458 1172.05 140.396 1208.29 147.185C1236.99 152.563 1266.4 165.292 1245.86 186.73C1234.05 199.066 1208.28 205.274 1186.77 210.474C1149.37 219.512 1112.84 228.18 1077.85 224.29C1054.23 221.664 1280.86 113.848 1265.9 104.928C1255.54 98.7487 1504.6 54.8519 1515.33 45.8501C1625.51 -46.5916 1035.83 173.028 1042.75 167.727C1238.86 5.00148 1057.02 156.923 1063.95 151.439C1089.37 131.331 1120.59 115.256 1155.9 99.5767C1199.62 80.1624 1242.26 62.2701 1291.68 49.0105C1309.96 44.1039 1328.59 39.5813 1347.15 35.4776C1349.72 34.9099 1361.56 31.6744 1364.62 32.9655C1369.66 35.0857 1369.39 42.8207 1369.46 45.8501C1369.69 57.3742 1366.43 69.5344 1361.82 81.5868C1352.35 106.401 1331.1 130.631 1311.81 155.248C1298.71 171.976 1279.14 191.611 1279.47 208.164C1279.78 223.624 1304.18 233.696 1315.69 245.522C1334.11 264.449 1342.55 284.579 1345.87 307.514C1347.78 320.777 1361.62 330.457 1383.47 334.985" stroke="url(#paint1_radial)" stroke-width="70" stroke-linecap="round" stroke-linejoin="round"/>
</g>
</g>
</g>
<defs>
<filter id="filter0_d" x="0" y="0" width="1246" height="441" filterUnits="userSpaceOnUse" color-interpolation-filters="sRGB">
<feFlood flood-opacity="0" result="BackgroundImageFix"/>
<feColorMatrix in="SourceAlpha" type="matrix" values="0 0 0 0 0 0 0 0 0 0 0 0 0 0 0 0 0 0 127 0"/>
<feOffset dy="9"/>
<feGaussianBlur stdDeviation="22.5"/>
<feColorMatrix type="matrix" values="0 0 0 0 0.215686 0 0 0 0 0.258824 0 0 0 0 0.980392 0 0 0 0.16 0"/>
<feBlend mode="normal" in2="BackgroundImageFix" result="effect1_dropShadow"/>
<feBlend mode="normal" in="SourceGraphic" in2="effect1_dropShadow" result="shape"/>
</filter>
<filter id="filter1_f" x="-225.732" y="-476.859" width="1706.06" height="1643.96" filterUnits="userSpaceOnUse" color-interpolation-filters="sRGB">
<feFlood flood-opacity="0" result="BackgroundImageFix"/>
<feBlend mode="normal" in="SourceGraphic" in2="BackgroundImageFix" result="shape"/>
<feGaussianBlur stdDeviation="77.5" result="effect1_foregroundBlur"/>
</filter>
<filter id="filter2_f" x="-174.645" y="-330.484" width="1787.9" height="1179.21" filterUnits="userSpaceOnUse" color-interpolation-filters="sRGB">
<feFlood flood-opacity="0" result="BackgroundImageFix"/>
<feBlend mode="normal" in="SourceGraphic" in2="BackgroundImageFix" result="shape"/>
<feGaussianBlur stdDeviation="22.5" result="effect1_foregroundBlur"/>
</filter>
<radialGradient id="paint0_radial" cx="0" cy="0" r="1" gradientUnits="userSpaceOnUse" gradientTransform="translate(367.475 492.243) rotate(-40.253) scale(804.465 705.685)">
<stop stop-color="#F426C7"/>
<stop offset="0.440022" stop-color="#00E0FF"/>
<stop offset="0.828125" stop-color="#FB6565"/>
</radialGradient>
<radialGradient id="paint1_radial" cx="0" cy="0" r="1" gradientUnits="userSpaceOnUse" gradientTransform="translate(371.902 378.863) rotate(-23.6837) scale(1180.63 584.725)">
<stop stop-color="#567DF4"/>
<stop offset="0.583333" stop-color="#FB65A4"/>
<stop offset="1" stop-color="white"/>
</radialGradient>
</defs>
</svg>
