<svg width="1156" height="241" viewBox="0 0 1156 241" fill="none" xmlns="http://www.w3.org/2000/svg">
<mask id="mask0" mask-type="alpha" maskUnits="userSpaceOnUse" x="0" y="0" width="1157" height="241">
<path fill-rule="evenodd" clip-rule="evenodd" d="M0 40C0 21.1438 0 11.7157 5.85786 5.85786C11.7157 0 21.1438 0 40 0H235.988H332.046H431.977H667.552H1116C1134.86 0 1144.28 0 1150.14 5.85786C1156 11.7157 1156 21.1438 1156 40V201C1156 219.856 1156 229.284 1150.14 235.142C1144.28 241 1134.86 241 1116 241H667.552H431.977H332.046H235.988H40C21.1438 241 11.7157 241 5.85786 235.142C0 229.284 0 219.856 0 201V40Z" fill="#C4C4C4"/>
</mask>
<g mask="url(#mask0)">
<g filter="url(#filter0_f)">
<path d="M542.788 130.423C526.537 130.88 524.389 142.773 526.459 148.949C532.278 166.315 -103.175 122.992 -81.1326 135.14C-74.3574 138.874 403.113 743.057 512.164 620.665C449.131 770.737 567.343 209.278 554.912 211.227C528.952 215.296 499.542 215.59 472.564 216.354C448.834 217.025 425.055 217.174 401.266 217.174C398.819 217.174 389.314 218.163 388.608 215.533C387.629 211.891 389.211 207.692 389.199 204.049C389.162 192.691 842.452 -98.6912 837.04 -109.711C834.699 -114.477 374.15 161.225 371.73 156.469C371.296 155.617 369.17 153.053 369.912 151.957C372.626 147.949 393.543 147.541 399.684 147.069C416.738 145.76 247.618 -221.303 264.907 -221.689C288.005 -222.206 503.425 142.157 525.117 147.65C541.736 151.859 631.898 43.6184 631.651 51.3368C631.261 63.4982 539.156 197.885 529.374 209.108C522.794 216.657 507.583 219.337 493.39 222.233C479.599 225.047 450.329 233.557 435.792 226.882C422.167 220.625 417.855 210.495 404.621 203.844C394.237 198.625 290.445 331.363 276.166 334.073C262.69 336.631 340.776 211.435 334.541 217.311C320.451 230.592 317.973 249.079 338.603 261.575C363.069 276.395 49.0112 267.064 79.5676 261.575C100.254 257.859 -95.133 128.318 -80.7217 120.135C-49.7503 102.549 521.642 200.656 483.262 184.873C470.058 179.443 442.893 173.526 425.622 177.49C415.218 179.878 409.491 189.788 405.436 194.444C396.019 205.256 390.724 217.67 404.123 228.556C412.476 235.343 -252.743 -109.089 185.812 -8.42674C194.532 2.48171 -10.5106 457.625 -1.11742 468.425C10.3161 481.57 415.366 555.511 439.604 562.789C464.686 570.32 560.942 324.681 585.3 332.877C590.683 334.688 593.064 335.931 595.829 338.516C598.178 340.713 610.402 339.595 614.008 339.473C625.978 339.07 637.42 336.137 648.428 334.073C682.04 327.768 715.021 321.148 747.295 313.291C778.972 305.579 851.054 321.419 882.027 313.017C898.574 308.529 642.209 41.1166 656.618 34.9901C686.36 22.3438 1144.03 101.715 1133.89 82.1623C1129.02 72.7775 750.993 -48.4359 742.297 -57.0949C731.778 -67.5698 877.848 179.294 862.193 170.654C848.569 163.134 834.811 155.683 820.899 148.3C1340.81 99.7769 1234.34 104.281 1237.28 99.7769C1241.88 92.7425 835.251 122.118 846.629 120.135C882.832 113.823 924.452 112.083 961.921 117.81C991.603 122.348 1026.18 133.086 1019.52 151.171C1015.69 161.577 995.413 166.814 978.488 171.201C949.071 178.826 920.233 186.138 885.591 182.857C862.204 180.641 1009.9 89.6869 990.905 82.1623C977.746 76.9494 1183.08 39.918 1187.83 32.324C1236.55 -45.6601 817.121 139.612 820.471 135.14C908.244 -2.13603 827.455 126.025 830.711 121.399C842.652 104.436 862.3 90.8747 885.957 77.6479C915.25 61.27 944.419 46.176 982.534 34.9901C996.638 30.8509 1011.28 27.0356 1026.1 23.5737C1028.15 23.0948 1037.25 20.3653 1040.83 21.4545C1046.72 23.2431 1050.93 29.7684 1052.74 32.324C1059.6 42.0457 1063.59 52.3041 1066.28 62.4716C1071.81 83.4053 1066.11 103.845 1062.44 124.612C1059.95 138.724 1053.15 155.288 1063 169.253C1072.2 182.295 1100.61 190.791 1118.09 200.767C1146.06 216.735 1165.49 233.716 1181.78 253.064C1191.21 264.253 1209.6 272.419 1232.45 276.239" stroke="url(#paint0_radial)" stroke-width="70" stroke-linecap="round" stroke-linejoin="round"/>
</g>
<g filter="url(#filter1_f)">
<path d="M701.382 86.6059C683.496 86.9774 672.398 96.6575 670.074 101.684C663.54 115.818 9.32881 80.5574 24.164 90.445C28.7238 93.4842 98.346 585.229 306.446 485.614C127.606 607.758 669.692 150.786 654.83 152.372C623.794 155.684 591.817 155.924 562.122 156.545C536.001 157.091 510.214 157.213 484.526 157.213C481.884 157.213 470.89 158.017 472.068 155.877C473.7 152.913 478.507 149.495 481.184 146.53C489.527 137.286 1194.09 -99.8706 1196.38 -108.839C1197.37 -112.718 496.542 111.676 497.44 107.805C497.601 107.111 497.198 105.024 498.808 104.132C504.698 100.87 527.585 100.538 534.565 100.154C553.947 99.0885 642.267 -199.664 661.223 -199.979C686.546 -200.399 650.215 96.1561 669.584 100.627C684.423 104.052 861.681 15.9554 855.716 22.2374C846.318 32.1356 647.663 141.513 628.817 150.647C616.138 156.792 597.735 158.973 580.272 161.33C563.302 163.621 525.413 170.547 514.643 165.113C504.549 160.021 507.37 151.776 497.988 146.363C490.628 142.116 280.569 250.151 263.15 252.357C246.71 254.438 423.443 152.541 412.373 157.324C387.355 168.133 371.033 183.18 384.086 193.351C399.566 205.412 67.3206 197.818 104.368 193.351C129.449 190.326 14.0817 84.8921 35.6838 78.2321C82.1087 63.919 626.706 143.768 596.912 130.923C586.661 126.504 561.695 121.688 540.119 124.914C527.122 126.857 513.623 134.923 505.807 138.712C487.657 147.512 472.776 157.616 479.209 166.477C483.22 172 19.1275 -108.334 418.394 -26.4042C419.759 -17.5258 -137.615 352.916 -135.443 361.706C-132.8 372.405 250.012 432.585 270.813 438.509C292.339 444.638 577.596 244.713 597.849 251.383C602.325 252.857 603.978 253.869 605.056 255.973C605.971 257.761 619.997 256.851 623.98 256.752C637.204 256.424 651.724 254.037 665.134 252.357C706.084 247.225 746.585 241.837 787.235 235.442C827.135 229.165 893.279 242.058 932.927 235.22C954.107 231.567 874.662 13.9192 894.743 8.93282C936.194 -1.36004 1371.82 63.2404 1375.3 47.3263C1376.97 39.688 1058.23 -58.9677 1055.23 -66.0153C1051.61 -74.5408 1027.12 126.382 1016.59 119.35C1007.43 113.23 998.075 107.165 988.503 101.156C1585.74 61.6628 1467.45 65.3288 1473.95 61.6628C1484.1 55.9375 1023.33 79.8465 1037.08 78.2321C1080.83 73.0951 1127.06 71.6788 1163.29 76.3403C1191.99 80.0332 1221.4 88.773 1200.87 103.493C1189.05 111.962 1163.28 116.225 1141.77 119.795C1104.38 126.001 1067.84 131.952 1032.85 129.282C1009.23 127.478 1235.86 53.4506 1220.9 47.3263C1210.54 43.0835 1459.6 12.9436 1470.33 6.76286C1580.51 -56.7085 990.836 94.0846 997.754 90.445C1193.86 -21.2842 1012.02 83.0262 1018.95 79.2614C1044.37 65.4551 1075.6 54.4173 1110.91 43.652C1154.63 30.322 1197.27 18.037 1246.68 8.93282C1264.97 5.56388 1283.59 2.45861 1302.16 -0.359017C1304.72 -0.74881 1316.56 -2.97032 1319.63 -2.08384C1324.66 -0.628068 1324.4 4.68286 1324.46 6.76286C1324.69 14.6754 1321.43 23.0247 1316.83 31.3C1307.35 48.338 1286.11 64.9741 1266.82 81.8765C1253.71 93.3623 1234.14 106.844 1234.47 118.209C1234.78 128.824 1259.19 135.739 1270.69 143.859C1289.11 156.855 1297.55 170.676 1300.87 186.424C1302.79 195.53 1316.62 202.177 1338.48 205.285" stroke="url(#paint1_radial)" stroke-width="70" stroke-linecap="round" stroke-linejoin="round"/>
</g>
</g>
<defs>
<filter id="filter0_f" x="-271.736" y="-411.658" width="1706.18" height="1247.86" filterUnits="userSpaceOnUse" color-interpolation-filters="sRGB">
<feFlood flood-opacity="0" result="BackgroundImageFix"/>
<feBlend mode="normal" in="SourceGraphic" in2="BackgroundImageFix" result="shape"/>
<feGaussianBlur stdDeviation="77.5" result="effect1_foregroundBlur"/>
</filter>
<filter id="filter1_f" x="-292.151" y="-341.646" width="1932.97" height="989.73" filterUnits="userSpaceOnUse" color-interpolation-filters="sRGB">
<feFlood flood-opacity="0" result="BackgroundImageFix"/>
<feBlend mode="normal" in="SourceGraphic" in2="BackgroundImageFix" result="shape"/>
<feGaussianBlur stdDeviation="57.5" result="effect1_foregroundBlur"/>
</filter>
<radialGradient id="paint0_radial" cx="0" cy="0" r="1" gradientUnits="userSpaceOnUse" gradientTransform="translate(320.977 313.255) rotate(-30.1295) scale(711.032 548.194)">
<stop/>
<stop offset="0.440022" stop-color="#838383"/>
<stop offset="0.828125" stop-color="#616161"/>
</radialGradient>
<radialGradient id="paint1_radial" cx="0" cy="0" r="1" gradientUnits="userSpaceOnUse" gradientTransform="translate(326.905 235.413) rotate(-16.7606) scale(1129.17 419.777)">
<stop/>
<stop offset="0.583333" stop-color="#6B6B6B"/>
<stop offset="1" stop-color="white"/>
</radialGradient>
</defs>
</svg>
